<svg xmlns="http://www.w3.org/2000/svg" viewBox="0 0 132 62" fill="none">
  <defs>
    <linearGradient id="wash" x1="14" y1="42" x2="118" y2="24" gradientUnits="userSpaceOnUse">
      <stop stop-color="#7a220c" stop-opacity=".14"/>
      <stop offset=".42" stop-color="#ff7a2b" stop-opacity=".28"/>
      <stop offset=".74" stop-color="#ffa74f" stop-opacity=".2"/>
      <stop offset="1" stop-color="#ffd27c" stop-opacity=".12"/>
    </linearGradient>
    <linearGradient id="base" x1="14" y1="42" x2="118" y2="24" gradientUnits="userSpaceOnUse">
      <stop stop-color="#8b270f"/>
      <stop offset=".34" stop-color="#eb6124"/>
      <stop offset=".68" stop-color="#ff8d36"/>
      <stop offset="1" stop-color="#ffc66a"/>
    </linearGradient>
    <linearGradient id="shine" x1="20" y1="48" x2="110" y2="18" gradientUnits="userSpaceOnUse">
      <stop stop-color="#ffffff" stop-opacity=".05"/>
      <stop offset=".5" stop-color="#fff0c2" stop-opacity=".36"/>
      <stop offset="1" stop-color="#ffffff" stop-opacity=".04"/>
    </linearGradient>
  </defs>
  <path d="M14 41C31 18 54 17 73 28c18 11 34 12 45-3" stroke="url(#wash)" stroke-linecap="round" stroke-width="22"/>
  <path d="M14 41C31 18 54 17 73 28c18 11 34 12 45-3" stroke="url(#base)" stroke-linecap="round" stroke-width="16" opacity=".95"/>
  <path d="M14 41C31 18 54 17 73 28c18 11 34 12 45-3" stroke="url(#shine)" stroke-linecap="round" stroke-width="8"/>
  <g fill="#fff3cb" fill-opacity=".8">
    <path d="M39 24l2 4 4 2-4 2-2 4-2-4-4-2 4-2 2-4Z"/>
    <path d="M86 20l2 4 4 2-4 2-2 4-2-4-4-2 4-2 2-4Z"/>
  </g>
  <g fill-opacity=".6">
    <circle cx="22" cy="34" r="2.1" fill="#9b2e13"/>
    <circle cx="34" cy="29" r="2.1" fill="#ff8d34"/>
    <circle cx="52" cy="22" r="2.2" fill="#ffba58"/>
    <circle cx="64" cy="24" r="2.2" fill="#ffd576"/>
    <circle cx="77" cy="27" r="2.1" fill="#df501f"/>
    <circle cx="96" cy="26" r="2.1" fill="#ff973f"/>
    <circle cx="108" cy="20" r="2.1" fill="#ffe1a6"/>
  </g>
</svg>
