<svg xmlns="http://www.w3.org/2000/svg" viewBox="0 0 132 62" fill="none">
  <defs>
    <linearGradient id="wash" x1="14" y1="42" x2="118" y2="24" gradientUnits="userSpaceOnUse">
      <stop stop-color="#7c4e10" stop-opacity=".12"/>
      <stop offset=".42" stop-color="#f0bf42" stop-opacity=".28"/>
      <stop offset="1" stop-color="#fff1a1" stop-opacity=".18"/>
    </linearGradient>
    <linearGradient id="base" x1="14" y1="42" x2="118" y2="24" gradientUnits="userSpaceOnUse">
      <stop stop-color="#8f5f16"/>
      <stop offset=".38" stop-color="#e3ad33"/>
      <stop offset=".72" stop-color="#f9dc57"/>
      <stop offset="1" stop-color="#fff4b8"/>
    </linearGradient>
    <linearGradient id="shine" x1="20" y1="48" x2="110" y2="18" gradientUnits="userSpaceOnUse">
      <stop stop-color="#ffffff" stop-opacity=".08"/>
      <stop offset=".52" stop-color="#fff9d3" stop-opacity=".5"/>
      <stop offset="1" stop-color="#ffffff" stop-opacity=".08"/>
    </linearGradient>
  </defs>
  <path d="M14 41C31 18 54 17 73 28c18 11 34 12 45-3" stroke="url(#wash)" stroke-linecap="round" stroke-width="22"/>
  <path d="M14 41C31 18 54 17 73 28c18 11 34 12 45-3" stroke="url(#base)" stroke-linecap="round" stroke-width="16" opacity=".95"/>
  <path d="M14 41C31 18 54 17 73 28c18 11 34 12 45-3" stroke="url(#shine)" stroke-linecap="round" stroke-width="8"/>
  <g fill="#fff6ca" fill-opacity=".9">
    <path d="M40 24l3 5 5 3-5 3-3 5-3-5-5-3 5-3 3-5Z"/>
    <path d="M84 20l2 4 4 2-4 2-2 4-2-4-4-2 4-2 2-4Z"/>
  </g>
  <g fill-opacity=".56">
    <circle cx="24" cy="34" r="2.3" fill="#af7422"/>
    <circle cx="35" cy="28" r="2.1" fill="#ffd85d"/>
    <circle cx="52" cy="22" r="2.3" fill="#f0ba34"/>
    <circle cx="63" cy="24" r="2.2" fill="#fff0a6"/>
    <circle cx="75" cy="27" r="2.4" fill="#d89622"/>
    <circle cx="96" cy="26" r="2.2" fill="#ffe16b"/>
    <circle cx="109" cy="20" r="2.1" fill="#fff4bf"/>
  </g>
</svg>
