<svg xmlns="http://www.w3.org/2000/svg" viewBox="0 0 132 62" fill="none">
  <defs>
    <linearGradient id="wash" x1="14" y1="42" x2="118" y2="24" gradientUnits="userSpaceOnUse">
      <stop stop-color="#88ead6" stop-opacity=".16"/>
      <stop offset=".34" stop-color="#d89cff" stop-opacity=".26"/>
      <stop offset=".62" stop-color="#ffc9dd" stop-opacity=".24"/>
      <stop offset="1" stop-color="#a5d9ff" stop-opacity=".16"/>
    </linearGradient>
    <linearGradient id="base" x1="14" y1="42" x2="118" y2="24" gradientUnits="userSpaceOnUse">
      <stop stop-color="#93efd6"/>
      <stop offset=".24" stop-color="#b8a3ff"/>
      <stop offset=".48" stop-color="#ffd1e2"/>
      <stop offset=".74" stop-color="#c6ffd8"/>
      <stop offset="1" stop-color="#b8ddff"/>
    </linearGradient>
    <linearGradient id="shine" x1="20" y1="48" x2="110" y2="18" gradientUnits="userSpaceOnUse">
      <stop stop-color="#ffffff" stop-opacity=".14"/>
      <stop offset=".52" stop-color="#ffffff" stop-opacity=".52"/>
      <stop offset="1" stop-color="#ffffff" stop-opacity=".14"/>
    </linearGradient>
  </defs>
  <path d="M14 41C31 18 54 17 73 28c18 11 34 12 45-3" stroke="url(#wash)" stroke-linecap="round" stroke-width="22"/>
  <path d="M14 41C31 18 54 17 73 28c18 11 34 12 45-3" stroke="url(#base)" stroke-linecap="round" stroke-width="16" opacity=".92"/>
  <path d="M14 41C31 18 54 17 73 28c18 11 34 12 45-3" stroke="url(#shine)" stroke-linecap="round" stroke-width="8"/>
  <g fill="#ffffff" fill-opacity=".88">
    <path d="M40 24l3 5 5 3-5 3-3 5-3-5-5-3 5-3 3-5Z"/>
    <path d="M86 20l2 4 4 2-4 2-2 4-2-4-4-2 4-2 2-4Z"/>
  </g>
  <g fill-opacity=".62">
    <circle cx="23" cy="34" r="2.2" fill="#8ff0d8"/>
    <circle cx="34" cy="29" r="2.1" fill="#d49cff"/>
    <circle cx="51" cy="22" r="2.2" fill="#ffd0df"/>
    <circle cx="64" cy="24" r="2.3" fill="#d5ffd8"/>
    <circle cx="75" cy="27" r="2.2" fill="#bae0ff"/>
    <circle cx="96" cy="26" r="2.1" fill="#f2b6ff"/>
    <circle cx="108" cy="20" r="2.1" fill="#d4ff92"/>
  </g>
</svg>
