<svg xmlns="http://www.w3.org/2000/svg" viewBox="0 0 132 62" fill="none">
  <defs>
    <linearGradient id="wash" x1="14" y1="42" x2="118" y2="24" gradientUnits="userSpaceOnUse">
      <stop stop-color="#8de7d8" stop-opacity=".18"/>
      <stop offset=".34" stop-color="#ef7ad9" stop-opacity=".3"/>
      <stop offset=".68" stop-color="#8db0ff" stop-opacity=".28"/>
      <stop offset="1" stop-color="#b3ff88" stop-opacity=".18"/>
    </linearGradient>
    <linearGradient id="base" x1="14" y1="42" x2="118" y2="24" gradientUnits="userSpaceOnUse">
      <stop stop-color="#79f1d8"/>
      <stop offset=".28" stop-color="#d17cff"/>
      <stop offset=".56" stop-color="#ff92b8"/>
      <stop offset=".8" stop-color="#8fc4ff"/>
      <stop offset="1" stop-color="#d7ff7b"/>
    </linearGradient>
    <linearGradient id="shine" x1="20" y1="48" x2="110" y2="18" gradientUnits="userSpaceOnUse">
      <stop stop-color="#ffffff" stop-opacity=".12"/>
      <stop offset=".5" stop-color="#ffffff" stop-opacity=".45"/>
      <stop offset="1" stop-color="#ffffff" stop-opacity=".1"/>
    </linearGradient>
  </defs>
  <path d="M14 41C31 18 54 17 73 28c18 11 34 12 45-3" stroke="url(#wash)" stroke-linecap="round" stroke-width="22"/>
  <path d="M14 41C31 18 54 17 73 28c18 11 34 12 45-3" stroke="url(#base)" stroke-linecap="round" stroke-width="16" opacity=".92"/>
  <path d="M14 41C31 18 54 17 73 28c18 11 34 12 45-3" stroke="url(#shine)" stroke-linecap="round" stroke-width="8"/>
  <g fill="#ffffff" fill-opacity=".86">
    <path d="M43 22l3 5 5 3-5 3-3 5-3-5-5-3 5-3 3-5Z"/>
    <path d="M87 20l2 4 4 2-4 2-2 4-2-4-4-2 4-2 2-4Z"/>
  </g>
  <g fill-opacity=".64">
    <circle cx="20" cy="37" r="2.5" fill="#91ffd9"/>
    <circle cx="28" cy="31" r="2.2" fill="#b4a0ff"/>
    <circle cx="35" cy="27" r="2.3" fill="#ff8cb4"/>
    <circle cx="56" cy="21" r="2.1" fill="#7ef3d8"/>
    <circle cx="67" cy="24" r="2.5" fill="#d08bff"/>
    <circle cx="78" cy="28" r="2.2" fill="#ff9db4"/>
    <circle cx="97" cy="27" r="2.5" fill="#88bfff"/>
    <circle cx="110" cy="20" r="2.3" fill="#d7ff7b"/>
  </g>
</svg>
