<svg xmlns="http://www.w3.org/2000/svg" viewBox="0 0 132 62" fill="none">
  <defs>
    <linearGradient id="wash" x1="14" y1="42" x2="118" y2="24" gradientUnits="userSpaceOnUse">
      <stop stop-color="#607088" stop-opacity=".12"/>
      <stop offset=".4" stop-color="#b8c6d8" stop-opacity=".24"/>
      <stop offset="1" stop-color="#eef6ff" stop-opacity=".16"/>
    </linearGradient>
    <linearGradient id="base" x1="14" y1="42" x2="118" y2="24" gradientUnits="userSpaceOnUse">
      <stop stop-color="#69778b"/>
      <stop offset=".34" stop-color="#9eabbc"/>
      <stop offset=".7" stop-color="#dbe6f1"/>
      <stop offset="1" stop-color="#f4f9ff"/>
    </linearGradient>
    <linearGradient id="shine" x1="20" y1="48" x2="110" y2="18" gradientUnits="userSpaceOnUse">
      <stop stop-color="#ffffff" stop-opacity=".08"/>
      <stop offset=".52" stop-color="#ffffff" stop-opacity=".46"/>
      <stop offset="1" stop-color="#ffffff" stop-opacity=".08"/>
    </linearGradient>
  </defs>
  <path d="M14 41C31 18 54 17 73 28c18 11 34 12 45-3" stroke="url(#wash)" stroke-linecap="round" stroke-width="22"/>
  <path d="M14 41C31 18 54 17 73 28c18 11 34 12 45-3" stroke="url(#base)" stroke-linecap="round" stroke-width="16" opacity=".95"/>
  <path d="M14 41C31 18 54 17 73 28c18 11 34 12 45-3" stroke="url(#shine)" stroke-linecap="round" stroke-width="8"/>
  <g fill="#ffffff" fill-opacity=".88">
    <path d="M39 24l3 5 5 3-5 3-3 5-3-5-5-3 5-3 3-5Z"/>
    <path d="M85 20l2 4 4 2-4 2-2 4-2-4-4-2 4-2 2-4Z"/>
  </g>
  <g fill-opacity=".58">
    <circle cx="23" cy="34" r="2.1" fill="#71839a"/>
    <circle cx="35" cy="28" r="2.1" fill="#d9e4f0"/>
    <circle cx="52" cy="22" r="2.1" fill="#9fb0c8"/>
    <circle cx="65" cy="24" r="2.4" fill="#f1f9ff"/>
    <circle cx="77" cy="27" r="2.2" fill="#93a1b7"/>
    <circle cx="97" cy="26" r="2.1" fill="#dde6f6"/>
    <circle cx="108" cy="20" r="2.1" fill="#f8fbff"/>
  </g>
</svg>
